<?xml version="1.0" encoding="UTF-8"?>
<svg id="Camada_1" data-name="Camada 1" xmlns="http://www.w3.org/2000/svg" xmlns:xlink="http://www.w3.org/1999/xlink" viewBox="0 0 246.86 246.86">
  <defs>
    <style>
      .cls-1 {
        fill: #fff;
      }
    </style>
  </defs>
  <path class="cls-1" d="M60.25,148.93h-.24c-.42,1.15-.88,2.47-1.39,3.94-.48,1.47-.99,3.01-1.54,4.62-.55,1.57-1.06,3.09-1.54,4.57l-.67,2.98c-.19.61-.4,1.28-.63,2.02-.19.74-.42,1.49-.67,2.26-.22.74-.45,1.44-.67,2.12-.19.67-.37,1.27-.53,1.78-.32.1-.67.18-1.06.24-.35.1-.79.14-1.3.14-1.03,0-1.84-.19-2.45-.58-.58-.42-.87-1.03-.87-1.83,0-.35.05-.72.14-1.11.13-.38.26-.82.38-1.3.32-1.06.75-2.37,1.3-3.94.55-1.6,1.14-3.33,1.78-5.19.64-1.86,1.3-3.74,1.97-5.63.71-1.89,1.36-3.65,1.97-5.29.61-1.67,1.14-3.06,1.59-4.18.38-.22.98-.43,1.78-.63.8-.19,1.62-.29,2.45-.29,1.09,0,2.08.16,2.98.48.93.32,1.51.83,1.73,1.54.67,1.76,1.39,3.78,2.16,6.06.77,2.28,1.55,4.65,2.36,7.12.8,2.47,1.57,4.87,2.31,7.21.74,2.34,1.39,4.46,1.97,6.35-.32.35-.77.64-1.35.87-.55.22-1.19.34-1.92.34-1.06,0-1.83-.19-2.31-.58-.45-.42-.8-1.04-1.06-1.88l-1.97-6.3-.63-3.08c-.51-1.64-1.03-3.24-1.54-4.81-.48-1.6-.95-3.09-1.39-4.47s-.83-2.56-1.15-3.56ZM52.17,166.2l2.26-4.76h12.02l.91,4.76h-15.2ZM76.53,164.47v-3.8h5.92v3.7c0,1.7.43,2.92,1.3,3.65.9.74,2.13,1.11,3.7,1.11,1.03,0,1.89-.1,2.6-.29.71-.19,1.23-.4,1.59-.63v-7.55h5.92v8.03c0,.74-.13,1.36-.38,1.88-.22.48-.67.93-1.35,1.35-.93.55-2.12.99-3.56,1.35-1.41.38-3.03.58-4.86.58-2.21,0-4.14-.32-5.77-.96s-2.9-1.65-3.8-3.03c-.87-1.41-1.3-3.21-1.3-5.39ZM97.55,162.98h-5.92v-12.5c.26-.06.63-.13,1.11-.19.51-.1,1.04-.14,1.59-.14,1.12,0,1.94.19,2.45.58s.77,1.11.77,2.16v10.1ZM82.45,162.98h-5.92v-12.5c.26-.06.63-.13,1.11-.19.48-.1,1.01-.14,1.59-.14,1.12,0,1.94.19,2.45.58s.77,1.11.77,2.16v10.1ZM102.81,160.48h5.92v5.67c0,1.06.3,1.81.91,2.26.64.45,1.54.67,2.69.67.51,0,1.06-.06,1.64-.19.61-.13,1.12-.29,1.54-.48.22.26.43.56.63.91.19.35.29.79.29,1.3,0,.93-.45,1.7-1.35,2.31-.87.61-2.23.91-4.09.91-2.53,0-4.54-.56-6.01-1.68-1.44-1.15-2.16-3.01-2.16-5.58v-6.11ZM106.42,155.57v-4.66h9.43c.13.22.26.55.38.96.16.42.24.85.24,1.3,0,.8-.19,1.41-.58,1.83-.38.38-.88.58-1.49.58h-7.98ZM108.73,161.77h-5.92v-17.31c.26-.1.63-.19,1.11-.29.51-.1,1.04-.14,1.59-.14,1.12,0,1.94.21,2.45.63.51.38.77,1.09.77,2.12v15ZM128.96,163.6l-4.14-2.74,10.92-10.87c1.19.03,2.13.32,2.84.87.71.51,1.06,1.19,1.06,2.02,0,.67-.24,1.28-.72,1.83-.45.55-1.14,1.22-2.07,2.02l-7.89,6.88ZM124.97,161.73l4.57-2.16,11.21,10.53c-.1,1.06-.42,1.89-.96,2.5-.55.61-1.3.91-2.26.91-.74,0-1.41-.18-2.02-.53-.61-.38-1.23-.96-1.88-1.73l-8.66-9.52ZM120.35,160.38l5.92.29v12.41c-.26.1-.63.18-1.11.24-.48.1-1.01.14-1.59.14-1.09,0-1.91-.19-2.45-.58-.51-.42-.77-1.14-.77-2.16v-10.34ZM126.27,163.7l-5.92-.29v-21.5c.26-.06.63-.14,1.11-.24.48-.1,1.01-.14,1.59-.14,1.12,0,1.94.21,2.45.63.51.38.77,1.09.77,2.12v19.43ZM143.99,143.64c0-.93.32-1.72.96-2.36.67-.64,1.51-.96,2.5-.96s1.84.32,2.45.96c.64.64.96,1.43.96,2.36s-.32,1.68-.96,2.36c-.61.64-1.43.96-2.45.96s-1.83-.32-2.5-.96c-.64-.67-.96-1.46-.96-2.36ZM144.47,160.48h5.96v12.6c-.26.1-.63.18-1.11.24-.48.1-1.01.14-1.59.14-1.09,0-1.91-.19-2.45-.58-.55-.42-.82-1.14-.82-2.16v-10.24ZM150.44,163.51h-5.96v-12.89c.26-.1.63-.18,1.11-.24.51-.1,1.06-.14,1.64-.14,1.12,0,1.94.21,2.45.63.51.38.77,1.11.77,2.16v10.48ZM170.91,168.17v-15.1h5.92v15.73c0,.71-.16,1.3-.48,1.78-.29.45-.77.88-1.44,1.3-.77.51-1.83.96-3.17,1.35-1.31.42-2.82.63-4.52.63-2.53,0-4.75-.42-6.64-1.25-1.86-.87-3.3-2.18-4.33-3.94-1.03-1.8-1.54-4.06-1.54-6.78s.51-5.08,1.54-6.88c1.06-1.8,2.47-3.11,4.23-3.94,1.76-.87,3.72-1.3,5.87-1.3,1.19,0,2.26.14,3.22.43.99.29,1.8.63,2.4,1.01v5.05c-.51-.48-1.19-.9-2.02-1.25-.83-.35-1.8-.53-2.89-.53-1.19,0-2.26.26-3.22.77-.96.48-1.72,1.28-2.26,2.4-.55,1.09-.82,2.52-.82,4.28,0,2.5.58,4.33,1.73,5.48,1.15,1.15,2.71,1.73,4.66,1.73.87,0,1.6-.1,2.21-.29.61-.19,1.12-.42,1.54-.67ZM176.83,154.27l-5.92.05v-12.41c.22-.06.58-.14,1.06-.24.51-.1,1.04-.14,1.59-.14,1.15,0,1.99.21,2.5.63.51.38.77,1.09.77,2.12v10ZM199.74,166.73c0,2.24-.83,4.01-2.5,5.29-1.67,1.25-4.09,1.88-7.26,1.88-2.56,0-4.66-.38-6.3-1.15-1.64-.77-2.45-1.8-2.45-3.08,0-.55.13-1.04.38-1.49.26-.48.59-.85,1.01-1.11.9.58,1.94,1.09,3.13,1.54,1.19.45,2.53.67,4.04.67,2.73,0,4.09-.83,4.09-2.5,0-.71-.24-1.27-.72-1.68-.48-.45-1.22-.77-2.21-.96l-2.74-.72c-2.34-.51-4.09-1.31-5.24-2.4-1.12-1.09-1.68-2.55-1.68-4.38,0-2.02.83-3.67,2.5-4.95,1.67-1.31,3.98-1.97,6.93-1.97,1.54,0,2.92.16,4.14.48,1.22.29,2.16.72,2.84,1.3.71.58,1.06,1.27,1.06,2.07,0,.55-.13,1.04-.38,1.49-.22.42-.53.74-.91.96-.38-.22-.91-.46-1.59-.72-.64-.29-1.38-.51-2.21-.67-.83-.19-1.67-.29-2.5-.29-1.25,0-2.24.21-2.98.63-.71.38-1.06.95-1.06,1.68,0,.55.21,1.01.63,1.39s1.12.69,2.12.91l2.45.58c2.6.61,4.49,1.51,5.67,2.69,1.19,1.15,1.78,2.66,1.78,4.52Z"/>
  <image width="1080" height="1080" transform="scale(.23)" xlink:href="../../../../../../Documents/LuDesigns/AutikidsLogoSombraB.png"/>
</svg>